<?xml version="1.0" encoding="UTF-8"?>
<svg width="24px" height="24px" viewBox="0 0 24 24" version="1.1" xmlns="http://www.w3.org/2000/svg" xmlns:xlink="http://www.w3.org/1999/xlink">
    <title>上传</title>
    <g id="05APP开发（V1.0.2)" stroke="none" stroke-width="1" fill="none" fill-rule="evenodd">
        <g id="界面配置-APP底部操作栏" transform="translate(-658.000000, -790.000000)" fill="#FFFFFF">
            <g id="内容" transform="translate(275.000000, 80.000000)">
                <g id="编组-5" transform="translate(20.000000, 580.000000)">
                    <g id="列表" transform="translate(0.000000, 70.000000)">
                        <g id="1" transform="translate(16.000000, 54.000000)">
                            <g id="上传" transform="translate(347.000000, 6.000000)">
                                <path d="M3.56104217,20.9715218 C2.85151107,21.1318951 2.16353307,20.5987033 2.02446235,19.7803927 C1.99184588,19.588644 1.99184588,19.3913196 2.02446235,19.1995709 L2.02446235,15.8859754 C2.02446235,15.396728 2.57565812,15 3,15 C3.42434188,15 4,15.5107525 4,16 L4,19 L20,19 L20,16 C20,15.5107525 20.5756581,15 21,15 C21.4243419,15 22,15.396728 22,15.8859754 L22,19.1995709 C21.959844,20.1584089 21.2948943,20.9252148 20.4634202,20.9715218 L3.56104217,20.9715218 Z M12.0122312,3 L6.86472976,8.3906337 C6.61715602,8.72822771 6.67452166,9.21487792 6.99265515,9.47750902 C7.00109609,9.48446613 6.99123125,9.49339074 7,9.5 C7.2751912,9.7105397 8.22472685,9.7105397 8.5,9.5 L12,5.5 L15.5,9.5 C15.7828946,9.8050695 16.6998957,9.78585047 17,9.5 C17.283878,9.20910562 17.4515598,8.62587116 17.177434,8.32462807 C17.1716155,8.31827971 17.165797,8.3120183 17.1597326,8.30584386 L12.0122312,3 Z M12,5 C11.4561067,4.99348635 11.0087467,5.35652315 11,5.81136748 L11,17.1635611 C11,17.6254538 11.44768,18 12,18 C12.55232,18 13,17.6254538 13,17.1635611 L13,5.81136748 C12.9912533,5.35652315 12.5438933,4.99348635 12,5 L12,5 Z" id="Fill-1"></path>
                            </g>
                        </g>
                    </g>
                </g>
            </g>
        </g>
    </g>
</svg>